<svg width="50" height="50" viewBox="0 0 50 50" fill="none" xmlns="http://www.w3.org/2000/svg">
<circle cx="25" cy="25" r="25" fill="#03505C"/>
<path d="M35.8446 29.8897L32.0346 29.4547C31.5866 29.402 31.1325 29.4516 30.7064 29.5997C30.2803 29.7478 29.8934 29.9905 29.5746 30.3097L26.8146 33.0696C22.5564 30.904 19.0952 27.4429 16.9296 23.1847L19.7046 20.4096C20.3496 19.7646 20.6646 18.8647 20.5596 17.9497L20.1246 14.1697C20.0395 13.4379 19.6884 12.763 19.1379 12.2734C18.5875 11.7838 17.8762 11.5138 17.1396 11.5147H14.5446C12.8496 11.5147 11.4396 12.9247 11.5446 14.6197C12.3396 27.4297 22.5846 37.6597 35.3796 38.4547C37.0746 38.5597 38.4846 37.1497 38.4846 35.4547V32.8596C38.4996 31.3447 37.3596 30.0697 35.8446 29.8897Z" fill="white"/>
</svg>
