<svg width="250" height="250" viewBox="0 0 250 250" fill="none" xmlns="http://www.w3.org/2000/svg">
<circle cx="125" cy="125" r="125" fill="#03505C"/>
<path fill-rule="evenodd" clip-rule="evenodd" d="M125 54.6875C129.449 54.6875 133.854 55.5637 137.964 57.2661C142.074 58.9685 145.808 61.4638 148.954 64.6095C152.099 67.7551 154.595 71.4895 156.297 75.5995C157.999 79.7095 158.876 84.1146 158.876 88.5632C158.876 88.6414 158.873 88.7193 158.873 88.7976L125.234 122.436C125.156 122.436 125.078 122.439 125 122.439C120.551 122.439 116.146 121.563 112.036 119.86C107.926 118.158 104.192 115.663 101.046 112.517C97.9005 109.371 95.4053 105.637 93.7029 101.527C92.0004 97.4169 91.1242 93.0118 91.1242 88.5632C91.1242 84.1146 92.0004 79.7095 93.7029 75.5995C95.4053 71.4895 97.9005 67.7551 101.046 64.6095C104.192 61.4638 107.926 58.9685 112.036 57.2661C116.146 55.5637 120.551 54.6875 125 54.6875ZM109.081 144.39L114.327 139.145L127.384 152.202L122.138 157.447C121.863 157.721 121.49 157.874 121.102 157.874C120.714 157.874 120.341 157.721 120.066 157.447L109.08 146.46C108.806 146.185 108.652 145.813 108.652 145.424C108.652 145.036 108.806 144.664 109.08 144.389L109.081 144.39ZM117.225 136.245L130.282 149.302L180.379 99.2056C182.107 97.4735 183.077 95.1261 183.076 92.6792C183.075 90.2323 182.102 87.886 180.372 86.1558C178.641 84.4256 176.295 83.453 173.848 83.4517C171.401 83.4504 169.054 84.4205 167.322 86.1488L117.227 136.244L117.225 136.245ZM172.067 91.5608L151.481 112.147C151.096 112.532 150.88 113.053 150.88 113.597C150.88 114.141 151.096 114.663 151.481 115.048C151.865 115.432 152.387 115.648 152.931 115.648C153.475 115.648 153.997 115.432 154.381 115.048L174.967 94.4612C175.158 94.2708 175.309 94.0447 175.412 93.7959C175.515 93.5471 175.568 93.2804 175.568 93.011C175.568 92.7417 175.515 92.475 175.412 92.2262C175.309 91.9774 175.158 91.7513 174.967 91.5608C174.777 91.3704 174.551 91.2193 174.302 91.1163C174.053 91.0132 173.787 90.9602 173.517 90.9602C173.248 90.9602 172.981 91.0132 172.732 91.1163C172.484 91.2193 172.258 91.3704 172.067 91.5608ZM115.506 158.686L107.841 151.022L66.9282 191.935C71.5009 196.508 85.5663 196.931 92.377 190.121L106.581 175.918C106.886 175.613 106.909 168.833 107.159 167.035L115.506 158.688V158.686ZM117.494 69.1669V81.057H105.605V96.0693H117.495V107.959H132.508V96.0693H144.398V81.057H132.506V69.1669H117.494Z" fill="white"/>
</svg>
