<svg width="250" height="250" viewBox="0 0 250 250" fill="none" xmlns="http://www.w3.org/2000/svg">
<circle cx="125" cy="125" r="125" fill="#03505C"/>
<g clip-path="url(#clip0_229_1626)">
<path d="M199.955 118.897C200.236 114.992 197.065 111.806 193.285 111.806H188.475C187.663 102.122 179.385 93.2663 168.826 85.8003C179.556 77.9285 189.849 70.2439 191.489 68.6042C195.566 64.5278 195.566 57.8897 191.489 53.8131C187.397 49.7212 180.775 49.7212 176.698 53.8131C174.933 55.5782 166.218 67.3078 157.768 78.8344C149.725 74.2895 141.4 70.5252 134.637 67.7294C128.421 65.1835 121.58 65.1835 115.363 67.7294C95.7459 75.8045 63.1807 92.1102 61.5251 111.806H56.7146C52.9347 111.806 49.7642 114.992 50.0455 118.897C52.0916 147.089 69.8188 170.845 94.2624 181.903L86.5154 191.103C83.7978 194.336 86.0938 199.256 90.3108 199.256H159.69C163.907 199.256 166.203 194.32 163.485 191.103L155.738 181.903C180.181 170.845 197.909 147.089 199.955 118.897ZM178.9 56.0153C181.759 53.1726 186.397 53.1416 189.271 56.0153C192.145 58.889 192.145 63.5434 189.271 66.4019C187.772 67.9169 177.526 75.5387 166.093 83.9261C164.266 82.7077 162.391 81.5364 160.486 80.412C169.217 68.4949 177.339 57.5929 178.9 56.0153ZM125 185.401C87.4368 185.401 55.887 156.1 53.1691 118.678C53.0129 116.616 54.6996 114.93 56.7146 114.93H193.285C195.3 114.93 196.987 116.616 196.831 118.678C194.113 156.1 162.563 185.401 125 185.401Z" fill="white"/>
</g>
<defs>
<clipPath id="clip0_229_1626">
<rect width="150" height="150" fill="white" transform="translate(50 50)"/>
</clipPath>
</defs>
</svg>
