<svg width="250" height="250" viewBox="0 0 250 250" fill="none" xmlns="http://www.w3.org/2000/svg">
<circle cx="125" cy="125" r="125" fill="#03505C"/>
<g clip-path="url(#clip0_229_877)">
<path d="M67.5 95H80V100.27C80.8106 100.105 81.6394 100 82.5 100C83.3606 100 84.1894 100.105 85 100.27V85H97.5C107.147 85 115 77.1497 115 67.5V65H97.5C88.5547 65 81.1669 71.7531 80.1356 80.425C76.9447 77.0897 72.4647 75 67.5 75H50V77.5C50 87.1497 57.8528 95 67.5 95ZM145 80.3503V70H157.5C167.147 70 175 62.1497 175 52.5V50H157.5C147.853 50 140 57.8503 140 67.5V80.3297C140.889 80.8963 141.728 81.5396 142.505 82.2522C143.278 81.5446 144.113 80.9081 145 80.3503ZM72.5 135C76.6344 135 80 131.634 80 127.5C80 126.47 79.7156 125.482 79.2822 124.528C76.5674 123.8 74.1776 122.178 72.5 119.923C70.8224 122.178 68.4326 123.8 65.7178 124.528C65.2844 125.482 65 126.47 65 127.5C65 131.634 68.3656 135 72.5 135ZM70 112.5C70 116.642 66.6419 120 62.5 120C58.3581 120 55 116.642 55 112.5C55 108.358 58.3581 105 62.5 105C66.6419 105 70 108.358 70 112.5ZM92.5 135C96.6344 135 100 131.634 100 127.5C100 126.47 99.7156 125.482 99.2822 124.528C96.5674 123.8 94.1776 122.178 92.5 119.923C90.63 122.433 87.865 124.217 84.6594 124.78C84.8669 125.677 85 126.584 85 127.5C85 131.634 88.3656 135 92.5 135ZM112.82 146.109C108.163 151.562 105.61 158.208 105.12 164.972L131.625 164.995L112.82 146.109ZM110 112.5C110 116.642 106.642 120 102.5 120C98.3581 120 95 116.642 95 112.5C95 108.358 98.3581 105 102.5 105C106.642 105 110 108.358 110 112.5ZM82.4375 135H82.5647C82.5453 134.972 82.5197 134.948 82.5022 134.923C82.4803 134.948 82.4544 134.972 82.4375 135Z" fill="white"/>
<path d="M115 112.5C115 115.788 113.697 118.757 111.615 120.993C113.382 126.353 116.527 131.153 120.804 135H152.066C156.143 132.549 160.681 130.963 165.398 130.341C163.831 126.238 161.43 122.465 158.232 119.268L161.768 115.733C165.398 119.363 168.147 123.631 169.965 128.273C173.258 123.087 175 117.157 175 110.918C175 100.781 170.393 91.4078 162.36 85.2006C156.847 80.9428 148.822 81.9606 144.461 87.4696L142.47 89.9806L140.518 87.4431C136.231 82.0306 128.368 80.8975 122.987 84.9356C116.906 89.5084 112.68 96.005 110.926 103.33C113.413 105.616 115 108.863 115 112.5ZM155 87.5003C156.995 87.5003 158.268 88.3546 159.303 89.1556C166.1 94.4106 170 102.343 170 110.916C170 111.496 169.98 112.075 169.945 112.65L164.955 112.348C164.985 111.871 165 111.394 165 110.916C165 103.9 161.81 97.4096 156.245 93.1106C155.455 92.5003 155.282 92.5003 155 92.5003V87.5003ZM131.462 169.995L105.15 169.972C105.682 176.656 108.238 183.192 112.843 188.581L131.462 169.995ZM90 112.5C90 116.642 86.6419 120 82.5 120C78.3581 120 75 116.642 75 112.5C75 108.358 78.3581 105 82.5 105C86.6419 105 90 108.358 90 112.5ZM135.177 161.48C135.403 159.248 135.847 157.088 136.472 155H128.725L135.177 161.48ZM113.79 140L123.748 150H138.425C140.213 146.255 142.62 142.868 145.553 140H113.79ZM139.972 199.89C146.894 199.37 153.388 196.687 158.655 192.138L139.995 173.4L139.972 199.89ZM171.895 135.096C172.278 137.238 172.5 139.423 172.5 141.643V145H167.5V141.643C167.5 139.44 167.264 137.278 166.83 135.17C151.773 136.761 140 149.53 140 165C140 165.47 140.04 165.928 140.067 166.391L165.775 192.205L164.02 193.97C163.91 194.08 163.788 194.173 163.678 194.282C165.768 194.74 167.877 195 170 195C186.543 195 200 181.543 200 165C200 149.098 187.553 136.083 171.895 135.096ZM155.138 149.373L158.447 145.628C161.637 148.447 165.74 150 170 150C174.26 150 178.363 148.447 181.553 145.628L184.862 149.373C180.761 153.001 175.48 155 170 155C164.52 155 159.239 153.001 155.138 149.373ZM170 190V185C181.028 185 190 176.028 190 165H195C195 178.786 183.785 190 170 190Z" fill="white"/>
<path d="M102.128 155H60V157.5C60 180.935 79.065 200 102.5 200H118.872C116.025 198.361 113.363 196.362 110.98 193.97C100.501 183.445 97.5772 168.199 102.128 155ZM110.98 140.735L111.713 140H57.5C56.1206 140 55 141.121 55 142.5V147.5C55 148.879 56.1206 150 57.5 150H104.225C105.988 146.583 108.267 143.458 110.98 140.735ZM134.972 199.876L134.995 173.533L116.372 192.125C121.618 196.655 128.073 199.344 134.972 199.875L134.972 199.876Z" fill="white"/>
</g>
<defs>
<clipPath id="clip0_229_877">
<rect width="150" height="150" fill="white" transform="translate(50 50)"/>
</clipPath>
</defs>
</svg>
