<svg width="180" height="180" viewBox="0 0 180 180" fill="none" xmlns="http://www.w3.org/2000/svg">
<circle cx="90" cy="90" r="90" fill="#03505C"/>
<path d="M64.1666 65.4164C60.8332 62.083 46.6666 61.2498 42.0832 60.833C41.6666 60.833 41.2498 60.833 40.8332 61.2496C40.4166 61.6664 40 62.4998 40 62.9164V100.416C40 101.666 40.8334 102.5 42.0834 102.5H54.5834C55.4168 102.5 56.25 102.083 56.6668 101.25C56.6668 99.9998 64.1668 77.9164 65.0002 67.0832C65 66.6664 65 65.8332 64.1666 65.4164ZM108.75 75.4164C104.583 74.1664 100.833 72.4998 97.5 71.2498C90 67.9164 86.6666 69.5832 80 76.2498C77.0834 79.1664 75 83.3332 75.4166 84.9998C75.4166 85.4164 75.4166 85.4164 76.25 85.8332C78.3334 86.6666 81.25 87.0832 84.1666 82.4998C84.5832 82.0832 85 81.6664 85.8332 81.6664C87.0832 81.6664 87.4998 81.2498 88.7498 80.833C89.5832 80.4164 90.4164 79.9996 91.6664 79.583H92.4998C92.9164 79.583 93.7498 79.9996 94.1664 79.9996C96.25 82.0832 100 84.9998 103.75 88.3332C109.583 92.9166 115.417 97.9166 118.333 101.667H118.75C115.833 93.3332 110.833 79.1664 108.75 75.4164ZM137.917 64.9998C121.667 64.9998 112.5 69.1664 112.083 69.1664L110.833 70.4164C110.833 70.833 110.833 71.6664 111.25 72.083C113.75 76.2496 122.083 99.1664 123.333 105C123.75 105.833 124.583 106.666 125.417 106.666H137.917C139.167 106.666 140 105.833 140 104.583V67.0828C140 65.8332 139.167 64.9998 137.917 64.9998Z" fill="white"/>
<path d="M115.417 105.833C113.75 102.083 106.667 96.6664 100.417 91.6664C97.0836 88.7496 93.7502 86.2496 91.2502 84.1662C90.8336 84.5828 90.0002 84.5828 90.0002 84.9996C88.7502 85.4162 88.3336 85.833 86.6668 85.833C83.3336 89.9996 79.1668 91.6662 74.5836 89.9996C72.5002 89.583 71.2502 87.9162 70.8336 86.2496C70.0002 82.083 73.7502 76.2496 76.667 73.333H68.3336C66.667 81.6664 63.7502 92.4996 61.667 98.333C63.3336 99.9996 65.0004 102.083 66.2504 102.916C74.167 109.583 83.3338 116.25 85.0004 117.5C86.2504 118.333 88.7504 119.166 90.0004 119.166H91.2504L84.5836 112.5C83.7502 111.666 83.7502 110.416 84.5836 109.583C85.417 108.75 86.667 108.75 87.5002 109.583L95.8336 117.916C96.667 118.75 97.5002 118.333 98.3336 118.333C99.5836 117.916 100 117.083 100.417 115.833L90.8336 106.25C90.0002 105.416 90.0002 104.166 90.8336 103.333C91.667 102.5 92.917 102.5 93.7502 103.333L104.167 113.75C104.583 114.166 106.25 114.166 107.5 113.75C107.917 113.333 108.75 112.916 109.167 112.083L97.5002 100.416C96.6668 99.5828 96.6668 98.3328 97.5002 97.4996C98.3336 96.6664 99.5836 96.6662 100.417 97.4996L112.5 109.583C113.334 110 114.167 109.583 115 109.166C115.417 108.75 116.25 107.5 115.417 105.833Z" fill="white"/>
</svg>
