<svg width="180" height="180" viewBox="0 0 180 180" fill="none" xmlns="http://www.w3.org/2000/svg">
<circle cx="90" cy="90" r="90" fill="#03505C"/>
<path d="M63.6328 57.7734C63.6328 69.2201 76.2402 78.5219 88.1574 88.7584C88.7096 89.2361 89.3934 89.4736 90.0771 89.4736C90.7609 89.4736 91.4447 89.2361 91.9939 88.7584C105.687 76.9072 116.367 69.9082 116.367 58.7348C116.367 49.9828 109.95 43.125 101.759 43.125C95.9623 43.125 92.2803 46.4066 90.0771 49.5766C87.8742 46.4066 84.1949 43.125 78.3986 43.125C69.8441 43.125 63.6328 49.2848 63.6328 57.7734ZM61.0547 123.984C62.6955 125.683 63.6328 127.656 63.6328 130V133.945C63.6328 135.586 64.9217 136.875 66.5625 136.875H84.1406C85.7814 136.875 87.0703 135.586 87.0703 133.945V108.105C87.0703 107.285 86.7773 106.582 86.1912 105.996L74.3555 94.1598C70.3965 90.2248 62.8209 89.2453 57.7732 94.1598L72.4217 108.867C73.1834 110.039 73.0662 111.562 72.0701 112.558C70.8982 113.73 69.0818 113.73 67.9098 112.558L52.7928 97.4408C52.207 96.8553 51.9141 96.1523 51.9141 95.3318V69.4922C51.9141 64.6287 47.7932 60.7031 42.9297 60.7031C41.2889 60.7031 40 61.992 40 63.6328V101.953C40 102.715 40.293 103.418 40.8791 104.004L61.0547 123.984ZM137.07 60.7031C132.207 60.7031 128.086 64.6287 128.086 69.4922V95.3318C128.086 96.1521 127.793 96.8553 127.207 97.4412L112.09 112.559C110.918 113.73 109.102 113.73 107.929 112.559C106.934 111.563 106.816 110.039 107.578 108.867L122.226 94.1602C117.179 89.2457 109.603 90.2252 105.644 94.1602L93.8084 105.996C93.2223 106.582 92.9293 107.286 92.9293 108.106V133.945C92.9293 135.586 94.2182 136.875 95.859 136.875H113.437C115.078 136.875 116.367 135.586 116.367 133.945V130C116.367 127.656 117.304 125.683 118.945 123.984L139.121 104.004C139.707 103.418 140 102.715 140 101.953V63.6328C140 61.992 138.711 60.7031 137.07 60.7031Z" fill="white"/>
</svg>
