<svg width="18" height="18" viewBox="0 0 18 18" fill="none" xmlns="http://www.w3.org/2000/svg">
<path d="M13.45 3.54984C13.2522 3.54984 13.0588 3.60849 12.8944 3.71837C12.7299 3.82825 12.6018 3.98443 12.5261 4.16715C12.4504 4.34988 12.4306 4.55095 12.4692 4.74493C12.5078 4.93891 12.603 5.11709 12.7429 5.25694C12.8827 5.3968 13.0609 5.49204 13.2549 5.53062C13.4489 5.56921 13.6499 5.5494 13.8326 5.47372C14.0154 5.39803 14.1715 5.26986 14.2814 5.10541C14.3913 4.94096 14.45 4.74762 14.45 4.54984C14.45 4.28462 14.3446 4.03027 14.1571 3.84273C13.9695 3.65519 13.7152 3.54984 13.45 3.54984ZM17.2833 5.5665C17.2671 4.87509 17.1376 4.19101 16.9 3.5415C16.6881 2.98578 16.3583 2.48257 15.9333 2.0665C15.5206 1.63936 15.0163 1.31165 14.4583 1.10817C13.8105 0.863305 13.1257 0.730846 12.4333 0.716504C11.55 0.666504 11.2666 0.666504 8.99996 0.666504C6.73329 0.666504 6.44996 0.666504 5.56663 0.716504C4.87425 0.730846 4.18941 0.863305 3.54163 1.10817C2.98469 1.31371 2.48074 1.64114 2.06663 2.0665C1.63948 2.47915 1.31177 2.98354 1.10829 3.5415C0.863427 4.18929 0.730968 4.87413 0.716626 5.5665C0.666626 6.44984 0.666626 6.73317 0.666626 8.99984C0.666626 11.2665 0.666626 11.5498 0.716626 12.4332C0.730968 13.1255 0.863427 13.8104 1.10829 14.4582C1.31177 15.0161 1.63948 15.5205 2.06663 15.9332C2.48074 16.3585 2.98469 16.686 3.54163 16.8915C4.18941 17.1364 4.87425 17.2688 5.56663 17.2832C6.44996 17.3332 6.73329 17.3332 8.99996 17.3332C11.2666 17.3332 11.55 17.3332 12.4333 17.2832C13.1257 17.2688 13.8105 17.1364 14.4583 16.8915C15.0163 16.688 15.5206 16.3603 15.9333 15.9332C16.3602 15.5187 16.6902 15.015 16.9 14.4582C17.1376 13.8087 17.2671 13.1246 17.2833 12.4332C17.2833 11.5498 17.3333 11.2665 17.3333 8.99984C17.3333 6.73317 17.3333 6.44984 17.2833 5.5665ZM15.7833 12.3332C15.7772 12.8621 15.6814 13.3863 15.5 13.8832C15.3669 14.2458 15.1532 14.5735 14.875 14.8415C14.6047 15.1169 14.2776 15.3302 13.9166 15.4665C13.4197 15.648 12.8956 15.7438 12.3666 15.7498C11.5333 15.7915 11.225 15.7998 9.03329 15.7998C6.84163 15.7998 6.53329 15.7998 5.69996 15.7498C5.1507 15.7601 4.60379 15.6755 4.08329 15.4998C3.73811 15.3566 3.42609 15.1438 3.16663 14.8748C2.89003 14.6071 2.679 14.2792 2.54996 13.9165C2.34651 13.4125 2.23366 12.8765 2.21663 12.3332C2.21663 11.4998 2.16663 11.1915 2.16663 8.99984C2.16663 6.80817 2.16663 6.49984 2.21663 5.6665C2.22036 5.12572 2.31908 4.58979 2.50829 4.08317C2.655 3.73143 2.88018 3.41789 3.16663 3.1665C3.4198 2.87998 3.7327 2.65242 4.08329 2.49984C4.59125 2.31654 5.12662 2.22074 5.66663 2.2165C6.49996 2.2165 6.80829 2.1665 8.99996 2.1665C11.1916 2.1665 11.5 2.1665 12.3333 2.2165C12.8623 2.22257 13.3864 2.31838 13.8833 2.49984C14.262 2.64038 14.6019 2.86888 14.875 3.1665C15.148 3.42249 15.3614 3.73545 15.5 4.08317C15.6852 4.59062 15.781 5.12632 15.7833 5.6665C15.825 6.49984 15.8333 6.80817 15.8333 8.99984C15.8333 11.1915 15.825 11.4998 15.7833 12.3332ZM8.99996 4.72484C8.1548 4.72648 7.32909 4.97861 6.62717 5.44935C5.92525 5.9201 5.37861 6.58833 5.05632 7.36963C4.73403 8.15093 4.65056 9.01023 4.81645 9.83895C4.98235 10.6677 5.39016 11.4286 5.98836 12.0257C6.58656 12.6227 7.3483 13.029 8.17734 13.1933C9.00638 13.3576 9.86551 13.2724 10.6462 12.9486C11.4269 12.6248 12.094 12.0769 12.5634 11.374C13.0328 10.6712 13.2833 9.845 13.2833 8.99984C13.2844 8.43743 13.1743 7.88034 12.9593 7.36063C12.7444 6.84093 12.4288 6.36885 12.0307 5.97155C11.6326 5.57425 11.1599 5.25957 10.6398 5.04561C10.1197 4.83165 9.56237 4.72264 8.99996 4.72484ZM8.99996 11.7748C8.45112 11.7748 7.9146 11.6121 7.45825 11.3072C7.00191 11.0022 6.64623 10.5688 6.43619 10.0618C6.22616 9.55472 6.17121 8.99676 6.27828 8.45846C6.38535 7.92016 6.64965 7.42571 7.03774 7.03762C7.42583 6.64953 7.92029 6.38523 8.45858 6.27816C8.99688 6.17108 9.55484 6.22604 10.0619 6.43607C10.569 6.6461 11.0024 7.00178 11.3073 7.45813C11.6122 7.91448 11.775 8.45099 11.775 8.99984C11.775 9.36426 11.7032 9.72511 11.5637 10.0618C11.4243 10.3985 11.2199 10.7044 10.9622 10.9621C10.7045 11.2197 10.3986 11.4241 10.0619 11.5636C9.72523 11.7031 9.36438 11.7748 8.99996 11.7748Z" fill="#03505C"/>
</svg>
