<svg width="18" height="18" viewBox="0 0 18 18" fill="none" xmlns="http://www.w3.org/2000/svg">
<path d="M16.0583 0.66662H1.94167C1.78299 0.664417 1.62543 0.693493 1.47798 0.75219C1.33053 0.810887 1.19609 0.898054 1.08234 1.00871C0.968585 1.11937 0.877743 1.25136 0.815001 1.39713C0.75226 1.5429 0.718848 1.6996 0.716675 1.85829V16.1416C0.718848 16.3003 0.75226 16.457 0.815001 16.6028C0.877743 16.7486 0.968585 16.8805 1.08234 16.9912C1.19609 17.1019 1.33053 17.189 1.47798 17.2477C1.62543 17.3064 1.78299 17.3355 1.94167 17.3333H16.0583C16.217 17.3355 16.3746 17.3064 16.522 17.2477C16.6695 17.189 16.8039 17.1019 16.9177 16.9912C17.0314 16.8805 17.1223 16.7486 17.185 16.6028C17.2478 16.457 17.2812 16.3003 17.2833 16.1416V1.85829C17.2812 1.6996 17.2478 1.5429 17.185 1.39713C17.1223 1.25136 17.0314 1.11937 16.9177 1.00871C16.8039 0.898054 16.6695 0.810887 16.522 0.75219C16.3746 0.693493 16.217 0.664417 16.0583 0.66662ZM5.74167 14.6166H3.24167V7.11662H5.74167V14.6166ZM4.49167 6.06662C4.14689 6.06662 3.81623 5.92966 3.57244 5.68586C3.32864 5.44206 3.19167 5.1114 3.19167 4.76662C3.19167 4.42184 3.32864 4.09118 3.57244 3.84738C3.81623 3.60358 4.14689 3.46662 4.49167 3.46662C4.67475 3.44586 4.86016 3.464 5.03574 3.51986C5.21132 3.57571 5.37312 3.66803 5.51056 3.79076C5.64799 3.91348 5.75795 4.06385 5.83323 4.23202C5.90852 4.40019 5.94744 4.58237 5.94744 4.76662C5.94744 4.95087 5.90852 5.13305 5.83323 5.30122C5.75795 5.46939 5.64799 5.61976 5.51056 5.74249C5.37312 5.86521 5.21132 5.95753 5.03574 6.01338C4.86016 6.06924 4.67475 6.08738 4.49167 6.06662ZM14.7583 14.6166H12.2583V10.5916C12.2583 9.58329 11.9 8.92495 10.9917 8.92495C10.7106 8.92701 10.4368 9.01519 10.2074 9.1776C9.97791 9.34001 9.80375 9.56885 9.70834 9.83329C9.64313 10.0292 9.61487 10.2354 9.62501 10.4416V14.6083H7.12501C7.12501 14.6083 7.12501 7.79162 7.12501 7.10829H9.62501V8.16662C9.85212 7.77254 10.1824 7.44789 10.5804 7.22762C10.9783 7.00736 11.4288 6.89983 11.8833 6.91662C13.55 6.91662 14.7583 7.99162 14.7583 10.3V14.6166Z" fill="#03505C"/>
</svg>
