<svg width="180" height="180" viewBox="0 0 180 180" fill="none" xmlns="http://www.w3.org/2000/svg">
<circle cx="90" cy="90" r="90" fill="#03505C"/>
<g clip-path="url(#clip0_7596_1086)">
<path d="M92.2433 75.4049L89.9997 70.8564L87.7562 75.4049C87.6143 75.6921 87.4046 75.9405 87.1453 76.1287C86.886 76.3168 86.5848 76.4391 86.2677 76.4849L81.2495 77.2137L84.8805 80.7547C85.1111 80.979 85.2834 81.2562 85.3825 81.5623C85.4816 81.8684 85.5044 82.194 85.4491 82.5109L84.5907 87.5095L89.0798 85.1495C89.3635 85.0003 89.6791 84.9223 89.9996 84.9223C90.3201 84.9223 90.6358 85.0003 90.9194 85.1495L95.4086 87.5095L94.5525 82.5109C94.4971 82.194 94.5199 81.8684 94.619 81.5623C94.7181 81.2562 94.8904 80.979 95.121 80.7547L98.752 77.216L93.7315 76.4849C93.4145 76.439 93.1134 76.3168 92.8541 76.1286C92.5948 75.9405 92.3852 75.6921 92.2433 75.4049Z" fill="white"/>
<path d="M90 53.4805C75.8006 53.4805 64.2896 64.9915 64.2896 79.191C64.2896 93.3904 75.8006 104.901 90 104.901C104.199 104.901 115.711 93.3904 115.711 79.191C115.695 64.998 104.193 53.4963 90 53.4805ZM104.957 76.1095C104.895 76.54 104.692 76.938 104.381 77.2417L104.374 77.2504L98.6205 82.8592L99.9794 90.7796C100.04 91.1424 99.998 91.5148 99.8583 91.855C99.7186 92.1952 99.4868 92.4897 99.1888 92.7053C98.8909 92.9209 98.5387 93.0491 98.1718 93.0754C97.805 93.1017 97.4381 93.0251 97.1125 92.8542L89.9998 89.1224L82.8872 92.8542C82.5608 93.0259 82.1929 93.1029 81.8251 93.0763C81.4573 93.0498 81.1042 92.9209 80.8059 92.7041C80.5075 92.4873 80.2758 92.1913 80.137 91.8497C79.9981 91.508 79.9577 91.1344 80.0202 90.7709L81.3791 82.8505L75.6254 77.2417C75.3614 76.9842 75.1747 76.6579 75.0865 76.2999C74.9983 75.9418 75.0121 75.5662 75.1263 75.2155C75.2405 74.8649 75.4506 74.5532 75.7328 74.3157C76.0149 74.0783 76.358 73.9246 76.723 73.872L84.6764 72.7173L88.2327 65.5103C88.396 65.1799 88.6484 64.9017 88.9614 64.7072C89.2745 64.5127 89.6357 64.4096 90.0043 64.4096C90.3728 64.4096 90.7341 64.5127 91.0471 64.7072C91.3602 64.9017 91.6126 65.1799 91.7759 65.5103L95.3322 72.7173L103.283 73.872C103.802 73.9468 104.27 74.2246 104.583 74.6442C104.897 75.0638 105.032 75.5909 104.957 76.1095Z" fill="white"/>
<path d="M126.175 84.5126L126.172 84.5139C125.468 82.6536 124.803 80.896 124.803 79.1914C124.803 77.4858 125.462 75.7273 126.171 73.8657C127.086 71.4509 127.953 69.1524 127.279 67.0781C126.57 64.8983 124.373 63.4669 122.248 62.0817C120.711 61.0742 119.104 60.0337 118.158 58.7341C117.212 57.4345 116.692 55.5532 116.202 53.7553C115.511 51.2132 114.859 48.8115 113.035 47.4856C111.21 46.1597 108.763 46.2915 106.146 46.4144C104.273 46.5022 102.335 46.5943 100.757 46.0806C99.2641 45.5955 97.7998 44.4122 96.386 43.2685C94.3904 41.6619 92.3445 40 90 40C87.6554 40 85.6096 41.6619 83.6119 43.2709C82.1982 44.4147 80.734 45.5957 79.2412 46.0808C77.6629 46.5923 75.8099 46.5067 73.8519 46.4146C71.2351 46.2917 68.7635 46.1754 66.9611 47.4859C65.1588 48.7964 64.485 51.2177 63.7934 53.7575C63.3038 55.5554 62.799 57.4149 61.8374 58.7363C60.8758 60.0577 59.2953 61.0764 57.7478 62.0839C55.6229 63.4692 53.4254 64.9005 52.7164 67.0803C52.0424 69.1549 52.9095 71.4444 53.825 73.8701C54.5275 75.7318 55.1926 77.49 55.1926 79.1936C55.1926 80.8972 54.5339 82.6554 53.825 84.5193C52.9095 86.9341 52.0424 89.2347 52.7164 91.3068C53.4254 93.4889 55.6229 94.9202 57.7478 96.3055C59.2844 97.313 60.8915 98.3535 61.8352 99.6531C62.7792 100.953 63.3016 102.834 63.7912 104.632C64.2126 106.186 64.6232 107.688 65.295 108.923L57.2912 129.392C57.1671 129.71 57.1275 130.055 57.1762 130.392C57.2249 130.73 57.3604 131.05 57.5693 131.32C57.7782 131.59 58.0535 131.801 58.3684 131.933C58.6832 132.065 59.0268 132.113 59.3658 132.072L70.5614 130.733L77.8738 139.308C78.096 139.568 78.3821 139.766 78.7038 139.882C79.0256 139.999 79.3721 140.03 79.7094 139.972C80.0467 139.914 80.3632 139.77 80.6279 139.553C80.8926 139.336 81.0964 139.054 81.2194 138.735L89.1991 118.319C89.7304 118.408 90.2727 118.408 90.8039 118.319L98.7814 138.735C98.9058 139.053 99.1105 139.333 99.3756 139.549C99.6406 139.764 99.957 139.907 100.294 139.963C100.631 140.02 100.976 139.988 101.297 139.872C101.618 139.755 101.903 139.557 102.125 139.297L109.437 130.722L120.633 132.061C120.971 132.101 121.313 132.053 121.627 131.922C121.941 131.791 122.215 131.581 122.424 131.312C122.633 131.044 122.769 130.726 122.819 130.39C122.869 130.053 122.831 129.71 122.71 129.392L114.704 108.919C115.375 107.683 115.784 106.182 116.207 104.628C116.695 102.83 117.2 100.97 118.163 99.6489C119.127 98.3274 120.706 97.3087 122.253 96.3012C124.378 94.916 126.578 93.4846 127.284 91.3048C127.955 89.2325 127.099 86.9428 126.175 84.5126ZM123.534 90.0886C123.258 90.9403 121.583 92.0314 120.103 92.995C118.347 94.141 116.349 95.4406 114.977 97.3284C113.605 99.2163 112.958 101.554 112.402 103.596C111.963 105.201 111.423 107.198 110.723 107.707C110.022 108.217 107.994 108.105 106.332 108.026C104.21 107.925 101.804 107.806 99.5404 108.548C97.3452 109.259 95.521 110.743 93.9052 112.045C92.52 113.165 90.9482 114.434 90.0022 114.434C89.0562 114.434 87.4842 113.165 86.097 112.041C84.4812 110.735 82.6506 109.255 80.4641 108.546C79.2128 108.14 77.81 107.951 76.0474 107.951C75.2329 107.951 74.4361 107.989 73.6678 108.026C72.0193 108.105 69.9688 108.202 69.2905 107.708C68.6123 107.214 68.048 105.196 67.609 103.592C67.0537 101.548 66.4258 99.2339 65.0361 97.3241C63.6465 95.4143 61.6687 94.1388 59.908 92.9908C58.4307 92.0272 56.7557 90.9361 56.479 90.0844C56.2331 89.3315 56.951 87.437 57.5262 85.9134C58.288 83.9003 59.1484 81.6195 59.1484 79.1916C59.1484 76.7636 58.2856 74.4828 57.524 72.4698C56.9488 70.9486 56.2331 69.0539 56.4768 68.2988C56.7534 67.4471 58.4283 66.3559 59.908 65.3901C61.6642 64.2441 63.6596 62.9445 65.0339 61.059C66.4082 59.1733 67.0534 56.8332 67.609 54.7916C68.048 53.1868 68.588 51.1891 69.2883 50.6799C69.9886 50.1707 72.017 50.2826 73.6678 50.3615C75.7905 50.4625 78.1989 50.5811 80.473 49.8391C82.6682 49.1279 84.4901 47.6439 86.1081 46.3421C87.4824 45.2182 89.0542 43.9514 90.0002 43.9514C90.9462 43.9514 92.5182 45.218 93.9032 46.3419C95.519 47.648 97.3496 49.1277 99.5383 49.8389C101.804 50.5742 104.212 50.4601 106.344 50.3613C107.992 50.2844 110.043 50.1878 110.721 50.6797C111.399 51.1715 111.952 53.1843 112.391 54.7914C112.947 56.8352 113.575 59.149 114.964 61.0588C116.354 62.9686 118.332 64.2464 120.092 65.3921C121.57 66.3557 123.245 67.4469 123.524 68.2985C123.77 69.0537 123.052 70.9481 122.476 72.4695C121.715 74.4826 120.852 76.7656 120.852 79.1914C120.852 81.6171 121.715 83.9001 122.476 85.9132L124.325 85.2151L125.159 84.9001L122.49 85.9176C123.065 87.4388 123.78 89.3313 123.534 90.0886Z" fill="white"/>
</g>
<defs>
<clipPath id="clip0_7596_1086">
<rect width="100" height="100" fill="white" transform="translate(40 40)"/>
</clipPath>
</defs>
</svg>
