<svg width="180" height="180" viewBox="0 0 180 180" fill="none" xmlns="http://www.w3.org/2000/svg">
<circle cx="90" cy="90" r="90" fill="#03505C"/>
<g clip-path="url(#clip0_7596_1678)">
<path d="M69.2867 70.9404C62.02 70.9404 56.1082 76.8522 56.1082 84.1188C56.1082 91.3855 62.02 97.2973 69.2867 97.2973C76.5533 97.2973 82.4653 91.3855 82.4653 84.1188C82.4653 76.8522 76.5533 70.9404 69.2867 70.9404ZM90.8868 131.395V113.466C90.8868 104.551 83.6338 97.2978 74.7188 97.2978H72.2134V123.501H66.3599V97.2978H63.8545C54.9395 97.2978 47.6865 104.551 47.6865 113.466V131.395H40V137.249H139.899V131.395H90.8868Z" fill="white"/>
<path d="M137.754 68.1315C134.306 58.5078 127.316 50.8032 118.073 46.4369C108.829 42.0706 98.4385 41.5649 88.8153 45.0135C82.7652 47.1814 77.3281 50.8555 73.0918 55.6383L77.4735 59.5195C81.0591 55.4713 85.6638 52.3608 90.7898 50.524C98.9411 47.6031 107.743 48.0312 115.572 51.7298C123.402 55.4285 129.323 61.9547 132.244 70.1064C137.435 84.594 131.645 100.392 119.197 108.354L122.29 100.65L116.858 98.4684L109.742 116.191L127.859 121.675L129.555 116.073L121.696 113.694C136.844 104.435 143.973 85.4869 137.754 68.1315Z" fill="white"/>
<path d="M98.5102 79.6986C99.6879 78.1389 100.26 76.5678 100.26 74.8953C100.26 73.1252 99.7683 71.6675 98.7976 70.5628C97.6185 69.22 95.9534 68.5391 93.8487 68.5391C92.1157 68.5391 90.6058 69.1203 89.3512 70.2758C88.1241 71.4365 87.4527 72.8784 87.3555 74.5615L87.3064 75.4157L91.5269 76.2197L91.6303 75.1558C91.7794 73.6235 92.6086 72.7089 93.8486 72.7089C94.8269 72.7089 95.2177 73.0448 95.4202 73.2901C95.764 73.7147 95.924 74.2247 95.924 74.8951C95.924 75.8024 95.7185 76.4954 94.5496 77.9834L86.938 87.7332V90.1261H100.621V85.9563H93.6726L98.5102 79.6986ZM114.265 81.8242V68.7611H110.117L101.497 83.7878V85.994H109.928V90.1265H114.265V85.994H116.678V81.8242H114.265ZM107.3 81.8242L109.929 77.1338V81.8242H107.3Z" fill="white"/>
</g>
<defs>
<clipPath id="clip0_7596_1678">
<rect width="100" height="100" fill="white" transform="translate(40 40)"/>
</clipPath>
</defs>
</svg>
