<svg width="180" height="180" viewBox="0 0 180 180" fill="none" xmlns="http://www.w3.org/2000/svg">
<circle cx="90" cy="90" r="90" fill="#03505C"/>
<g clip-path="url(#clip0_7596_1321)">
<path d="M114.455 59.5316L96.6406 41.7158V59.5316H114.455Z" fill="white"/>
<path d="M108.441 111.285C108.369 111.357 108.296 111.427 108.22 111.495C107.548 112.215 106.759 112.817 105.886 113.275L91.3848 120.871C90.1263 121.529 88.7276 121.873 87.3076 121.874C84.9592 121.874 82.7516 120.96 81.0916 119.3C80.3033 118.513 79.6712 117.584 79.2287 116.562H56.6016C54.9836 116.562 53.6719 115.251 53.6719 113.633C53.6719 112.015 54.9836 110.703 56.6016 110.703H78.8439C79.0109 110.116 79.2379 109.547 79.5213 109.006L84.7709 98.9844H56.6016C54.9836 98.9844 53.6719 97.6727 53.6719 96.0547C53.6719 94.4367 54.9836 93.125 56.6016 93.125H87.932L99.6508 81.4062H56.6016C54.9836 81.4062 53.6719 80.0945 53.6719 78.4766C53.6719 76.8586 54.9836 75.5469 56.6016 75.5469H105.43C105.455 75.5469 105.48 75.55 105.506 75.5508L115.666 65.3906H93.7109C92.093 65.3906 90.7812 64.0789 90.7812 62.4609V40H48.7891C43.9428 40 40 43.9428 40 48.7891V131.211C40 136.057 43.9428 140 48.7891 140H107.383C112.229 140 116.172 136.057 116.172 131.211V103.555L108.441 111.285ZM137.715 73.7248C140.762 70.6787 140.762 65.7225 137.715 62.6764C136.24 61.2008 134.278 60.3881 132.191 60.3881C130.104 60.3881 128.143 61.2008 126.667 62.6764L123.905 65.4385L134.953 76.4869L137.715 73.7248Z" fill="white"/>
<path d="M84.7116 111.726C84.4218 112.279 84.3163 112.91 84.4105 113.527C84.5047 114.144 84.7936 114.715 85.2352 115.156C85.6765 115.598 86.2475 115.887 86.8647 115.981C87.4819 116.075 88.1131 115.97 88.666 115.68L101.259 109.084L91.3078 99.1322L84.7116 111.726ZM94.8922 94.4424L119.748 69.5869L130.795 80.6338L105.939 105.489L94.8922 94.4424Z" fill="white"/>
</g>
<defs>
<clipPath id="clip0_7596_1321">
<rect width="100" height="100" fill="white" transform="translate(40 40)"/>
</clipPath>
</defs>
</svg>
