<svg width="180" height="180" viewBox="0 0 180 180" fill="none" xmlns="http://www.w3.org/2000/svg">
<circle cx="90" cy="90" r="90" fill="#03505C"/>
<path fill-rule="evenodd" clip-rule="evenodd" d="M63.8937 104.798C62.9354 104.661 61.9167 104.584 60.8333 104.584C52.8542 104.584 48.3979 108.794 46.6896 110.892C46.4125 111.252 46.2646 111.694 46.2646 112.15C46.2646 112.163 46.2646 112.175 46.2625 112.186C46.25 112.957 46.25 113.977 46.25 115C46.25 116.15 47.1833 117.084 48.3333 117.084H63.275C63.0396 116.421 62.9167 115.717 62.9167 115C62.9167 112.629 62.9167 109.805 62.925 108.136C62.925 106.948 63.2646 105.792 63.8937 104.798ZM110.833 117.084H69.1667C68.6146 117.084 68.0833 116.865 67.6937 116.473C67.3021 116.084 67.0833 115.552 67.0833 115C67.0833 112.636 67.0833 109.823 67.0917 108.148C67.0917 108.144 67.0917 108.14 67.0917 108.136C67.0917 107.657 67.2583 107.194 67.5604 106.823C70.1458 103.871 77.9583 96.2503 90 96.2503C103.629 96.2503 110.473 103.857 112.567 106.725C112.798 107.077 112.917 107.475 112.917 107.882V115C112.917 115.552 112.698 116.084 112.306 116.473C111.917 116.865 111.385 117.084 110.833 117.084ZM116.725 117.084H131.667C132.817 117.084 133.75 116.15 133.75 115V112.148C133.75 111.688 133.598 111.242 133.319 110.877C131.602 108.794 127.144 104.584 119.167 104.584C118.14 104.584 117.171 104.652 116.258 104.777C116.798 105.721 117.083 106.792 117.083 107.886V115C117.083 115.717 116.96 116.421 116.725 117.084ZM60.8333 79.5837C55.0833 79.5837 50.4167 84.2503 50.4167 90.0003C50.4167 95.7503 55.0833 100.417 60.8333 100.417C66.5833 100.417 71.25 95.7503 71.25 90.0003C71.25 84.2503 66.5833 79.5837 60.8333 79.5837ZM119.167 79.5837C113.417 79.5837 108.75 84.2503 108.75 90.0003C108.75 95.7503 113.417 100.417 119.167 100.417C124.917 100.417 129.583 95.7503 129.583 90.0003C129.583 84.2503 124.917 79.5837 119.167 79.5837ZM90 62.917C81.9521 62.917 75.4167 69.4524 75.4167 77.5003C75.4167 85.5482 81.9521 92.0837 90 92.0837C98.0479 92.0837 104.583 85.5482 104.583 77.5003C104.583 69.4524 98.0479 62.917 90 62.917Z" fill="white"/>
</svg>
