<svg width="18" height="14" viewBox="0 0 18 14" fill="none" xmlns="http://www.w3.org/2000/svg">
<path d="M17.3333 1.83351C16.7069 2.10525 16.0445 2.28489 15.3666 2.36684C16.0818 1.93961 16.6177 1.26749 16.875 0.475175C16.2029 0.875227 15.4673 1.15709 14.7 1.30851C14.1871 0.752318 13.5041 0.382088 12.7581 0.255884C12.0122 0.12968 11.2454 0.25464 10.5781 0.611166C9.91082 0.967692 9.38074 1.53562 9.07099 2.22587C8.76125 2.91613 8.68937 3.68967 8.86663 4.42517C7.50782 4.35645 6.17866 4.00264 4.96551 3.38673C3.75235 2.77082 2.68233 1.90659 1.82496 0.850175C1.52424 1.37531 1.36623 1.97003 1.36663 2.57517C1.36556 3.13716 1.50347 3.69069 1.76809 4.18648C2.0327 4.68227 2.41581 5.10493 2.88329 5.41684C2.33994 5.40206 1.8082 5.25626 1.33329 4.99184V5.03351C1.33737 5.82092 1.61329 6.58275 2.11439 7.19015C2.61549 7.79754 3.31101 8.21321 4.08329 8.36684C3.78601 8.45731 3.47736 8.50501 3.16663 8.50851C2.95153 8.506 2.73698 8.48649 2.52496 8.45017C2.74488 9.12752 3.17048 9.71946 3.74252 10.1436C4.31457 10.5678 5.00461 10.8031 5.71663 10.8168C4.5143 11.7629 3.02986 12.2792 1.49996 12.2835C1.22141 12.2844 0.943072 12.2677 0.666626 12.2335C2.22865 13.2421 4.04897 13.7774 5.90829 13.7752C7.19137 13.7885 8.46424 13.546 9.65256 13.0619C10.8409 12.5778 11.9208 11.8617 12.8293 10.9556C13.7378 10.0494 14.4566 8.97133 14.9438 7.78426C15.4309 6.59719 15.6767 5.32495 15.6666 4.04184C15.6666 3.90017 15.6666 3.75017 15.6666 3.60017C16.3205 3.11252 16.8845 2.5147 17.3333 1.83351Z" fill="#03505C"/>
</svg>
