<svg width="16" height="16" viewBox="0 0 16 16" fill="none" xmlns="http://www.w3.org/2000/svg">
<path d="M14.025 10.7171L11.9083 10.4755C11.6595 10.4462 11.4072 10.4738 11.1705 10.5561C10.9338 10.6383 10.7188 10.7732 10.5417 10.9505L9.00834 12.4838C6.64266 11.2806 4.71982 9.3578 3.51667 6.99212L5.05834 5.45046C5.41667 5.09212 5.59167 4.59212 5.53334 4.08379L5.29167 1.98379C5.24442 1.57727 5.04933 1.20232 4.74353 0.93033C4.43774 0.658339 4.04259 0.508304 3.63334 0.50879H2.19167C1.25 0.50879 0.46667 1.29212 0.525003 2.23379C0.96667 9.35046 6.65834 15.0338 13.7667 15.4755C14.7083 15.5338 15.4917 14.7505 15.4917 13.8088V12.3671C15.5 11.5255 14.8667 10.8171 14.025 10.7171Z" fill="white"/>
</svg>
