<svg width="12" height="13" viewBox="0 0 12 13" fill="none" xmlns="http://www.w3.org/2000/svg">
<path d="M11.8519 8.06C11.8387 7.96437 11.7619 7.84437 11.6794 7.76375C11.4431 7.53125 10.9237 7.40937 10.1325 7.39812C9.59625 7.3925 8.95125 7.43937 8.2725 7.535C7.96875 7.36062 7.65562 7.16937 7.41 6.93875C6.74812 6.32187 6.19687 5.465 5.85187 4.52187C5.87437 4.43375 5.89312 4.35687 5.91187 4.27813C5.91187 4.27813 6.28312 2.16312 6.18562 1.44687C6.1725 1.34937 6.16312 1.32125 6.13687 1.24438L6.105 1.16187C6.00375 0.9275 5.805 0.68 5.49375 0.693125L5.31 0.6875H5.30625C4.9575 0.6875 4.67625 0.865625 4.60125 1.13C4.37625 1.9625 4.60875 3.20937 5.03062 4.82187L4.92187 5.08437C4.62 5.82312 4.24125 6.56562 3.9075 7.22L3.86437 7.30437C3.51187 7.9925 3.19312 8.5775 2.9025 9.0725L2.60437 9.23C2.58187 9.24125 2.07 9.51312 1.95 9.58437C0.931871 10.1937 0.256871 10.8837 0.144371 11.4312C0.108746 11.6075 0.134996 11.8306 0.316871 11.9338L0.605621 12.08C0.731246 12.1419 0.864372 12.1737 0.999372 12.1737C1.725 12.1737 2.56687 11.27 3.7275 9.245C5.06625 8.81 6.5925 8.44625 7.92937 8.2475C8.9475 8.81937 10.2 9.21875 10.9912 9.21875C11.1319 9.21875 11.2537 9.20562 11.3512 9.17937C11.5031 9.13812 11.6306 9.05187 11.7094 8.93562C11.8631 8.705 11.8931 8.38625 11.8519 8.06ZM0.841872 11.6244C0.973122 11.2625 1.49812 10.5462 2.2725 9.9125C2.32125 9.87312 2.44125 9.76062 2.55 9.65562C1.74 10.9475 1.19812 11.4612 0.841872 11.6244ZM5.42812 1.0625C5.66062 1.0625 5.79375 1.64937 5.805 2.20062C5.81625 2.75187 5.68687 3.13812 5.5275 3.425C5.39437 3.00125 5.33062 2.33375 5.33062 1.89688C5.33062 1.89688 5.32125 1.0625 5.42812 1.0625ZM4.05937 8.58875C4.2225 8.29812 4.39125 7.99062 4.56375 7.66625C4.98562 6.86937 5.25187 6.24687 5.44875 5.735C5.8425 6.45125 6.33375 7.06062 6.90937 7.54812C6.9825 7.60812 7.05937 7.67 7.13812 7.73187C5.96625 7.9625 4.95187 8.24562 4.05937 8.58875ZM11.4525 8.52312C11.3812 8.56625 11.1769 8.5925 11.0456 8.5925C10.6219 8.5925 10.095 8.39937 9.35812 8.0825C9.64125 8.06187 9.90187 8.05062 10.1344 8.05062C10.56 8.05062 10.6856 8.04875 11.1037 8.15562C11.52 8.2625 11.5256 8.47812 11.4525 8.52312Z" fill="white"/>
</svg>
